<?xml version="1.0" encoding="utf-8"?>
<!-- Generator: Adobe Illustrator 18.1.1, SVG Export Plug-In . SVG Version: 6.00 Build 0)  -->
<svg version="1.1" id="Layer_1" xmlns="http://www.w3.org/2000/svg" xmlns:xlink="http://www.w3.org/1999/xlink" x="0px" y="0px"
	 viewBox="0 0 273.5 96.4" enable-background="new 0 0 273.5 96.4" xml:space="preserve">
<g>
	<path fill="#FFFFFF" d="M272.5,28.8l-6.5,0c-0.8,0-1.1,0.4-1.3,0.8l-7.6,25.4l-2.7,9l-5.8-19l-4.7-15.5c-0.1-0.4-0.5-0.8-1.3-0.8
		l-6.5,0c-0.9,0-1.1,0.7-0.9,1.3l13.3,44.1l1.4,4.6c-0.7,2.6-1.9,6.8-2.6,7.8c-0.7,1.4-2,1.7-4,1.7h-1.4c-0.9,0-0.9,0.8-0.9,1.6v4.4
		c0,0.2,0,1,0,1.2c0,0.5,0.5,0.7,1,0.8c0.9,0.1,2.3,0.2,3,0.2c0.3,0,2.5,0,4.1-0.5c5.5-1.7,6.1-5.7,7.8-11.3
		c0.4-1.3,0.7-2.4,1.2-3.9l15.1-50.6C273.7,29.5,273.4,28.9,272.5,28.8z"/>
	<path fill="#FFFFFF" d="M24.3,75.8c-5.7,0-9.6-2.2-11.5-4.1l-0.2,0.2v2.3c0,0.7-0.3,1.1-1.2,1.1H5.8c-0.7,0-1.1-0.2-1.1-0.9V9.1
		c0-0.7,0.3-1.1,1.1-1.1h6.4c0.7,0,0.9,0.3,0.9,0.9v23l0.3,0.2c1.9-1.6,6.1-3.7,11.7-3.7c11.9,0,16.8,8.3,16.8,17.6v12.2
		C42,68.6,35.8,75.8,24.3,75.8 M33.6,46.1c0-5.7-2.8-10.4-10.1-10.4c-6,0-10.2,4.7-10.2,10.4v12.2c0,5.7,4.1,10.3,10.1,10.3
		c7.4,0,10.2-4.4,10.2-10.3V46.1z"/>
	<path fill="#FFFFFF" d="M55.9,29c0.7,0,1.1,0.3,1.1,0.9v5.8h0.3c2.4-4,7.6-7.4,13.2-7.4c0.8,0,2.4,0.1,2.8,0.3
		c1.1,0.3,1.2,0.7,0.9,1.6L73,36.5c-0.2,1.2-0.8,1.2-1.4,1.1c-1.1-0.2-2.1-0.3-3.1-0.3c-7.9,0-10.5,5.2-10.5,11.9v25
		c0,0.7-0.3,1.1-0.9,1.1h-6.5c-0.6,0-1.1-0.3-1.1-0.9V30.1c0-0.7,0.3-1.1,1-1.1H55.9z"/>
	<path fill="#FFFFFF" d="M84.1,19.8c-3,0-5.3-2.2-5.3-5.3c0-2.8,2.3-5.2,5.2-5.2c3.1,0,5.5,2.2,5.5,5.2C89.4,17.3,87,19.8,84.1,19.8
		 M79.6,30.1c0-0.7,0.3-1.1,0.9-1.1h6.5c0.7,0,1.1,0.3,1.1,1.1v44.2c0,0.7-0.2,0.9-0.9,0.9h-6.5c-0.6,0-1.1-0.3-1.1-0.9V30.1z"/>
	<path fill="#FFFFFF" d="M102.9,59.1c-5.2-2.3-8-8.3-8-14.2c0-9.3,8.3-16.6,18.1-16.6c4.6,0,9.8,1.3,12.8,4.3c3.2-2.5,6.6-4,10-4
		c1.2-0.1,1.5,0.5,1.5,1.6v5.4c0,1.2-0.1,1.3-1.6,1.2c-1.9-0.1-4.4,0.1-5.8,0.6c1.5,2.6,2.1,5,2.1,7.5c0,9.7-8.6,16.7-19,16.7
		c-1.2,0-2,0.1-2.4,0.2c-3.6,0.8-7.5,5-7.3,8c4.9-1.3,10.1-1.6,12.4-1.6c9.7,0,21,3,21,13.7c0,6.1-5.6,11.9-11.1,14.2
		c-1.1,0.5-1.7,0.2-2.2-0.6l-2.3-3.6c-0.4-0.6-0.2-1.3,0.6-1.8c3.5-2.1,6.3-5.2,6.3-7.9c0-5.2-6.7-6.5-12.1-6.5
		c-4.5,0-10.7,0.8-15.8,1.7c-1.7,0.2-2.1-0.2-2.6-0.9c-1.3-1.8-1.9-4.3-1.9-7c0-3.8,3-7.8,7.3-10.1V59.1z M113.6,35.6
		c-6.3,0-10.3,4.5-10.3,9.7c0,5.1,3.6,9.6,9.7,9.6c6.5,0,10.3-4.3,10.3-9.6C123.3,40.1,119.3,35.6,113.6,35.6"/>
	<path fill="#FFFFFF" d="M179,75.2h-6.5c-0.7,0-0.9-0.3-0.9-0.9V46.1c0-6-3.1-10.3-10.1-10.3c-6.1,0-10.1,4.3-10.1,10.2v28.2
		c0,0.7-0.3,1.1-1.1,1.1h-6.4c-0.6,0-1.1-0.3-1.1-0.9V9.1c0-0.7,0.3-1.1,0.9-1.1h6.5c0.7,0,0.9,0.3,0.9,1.1v23.4l0.3,0.1
		c3.3-3.1,8.2-4.1,12.1-4.1c10.4,0,16.3,7.1,16.3,17.5v28.2C179.9,74.9,179.6,75.2,179,75.2"/>
	<path fill="#FFFFFF" d="M190.9,63.1v-27l-5.5,0.1c-0.7,0-1.1-0.3-1.1-0.9v-5.2c0-0.7,0.3-1.1,0.8-1.1h5.7V18.9
		c0-0.4,0.2-0.9,0.9-1.2l6.1-1.5c0.8-0.2,1.3,0.3,1.3,0.9V29H210c0.6,0,1.1,0.3,1.1,0.9v5.2c0,0.7-0.3,1.1-1.1,1.1l-10.8-0.1v25.2
		c0,4,1.1,6.6,5.3,6.6c2.3,0,4.7-0.3,6.2-0.6c1.6-0.3,1.9,0.3,2,1.2l0.8,4.3c0.2,1.2,0,1.4-1.1,1.8c-2.1,0.9-6.3,1.3-9.2,1.3
		C194,75.9,190.9,70.6,190.9,63.1"/>
	<path fill="#FFFFFF" d="M220.1,8.1h6.4c0.6,0,1.1,0.3,1.1,0.9v53.1c0,4.8,1.3,5.8,4.6,5.8h1.4c0.9,0,0.9,0.8,0.9,1.6v5
		c0,0.8-0.4,1.3-1.1,1.4c-0.8,0.2-2.3,0.2-3,0.2c-9.5,0-11.4-4.7-11.4-14V9.1C219.1,8.5,219.4,8.1,220.1,8.1"/>
</g>
</svg>
